<?xml version="1.0" standalone="no"?>
<!DOCTYPE svg PUBLIC "-//W3C//DTD SVG 20010904//EN"
 "http://www.w3.org/TR/2001/REC-SVG-20010904/DTD/svg10.dtd">
<svg version="1.0" xmlns="http://www.w3.org/2000/svg"
 width="568.000000pt" height="568.000000pt" viewBox="0 0 568.000000 568.000000"
 preserveAspectRatio="xMidYMid meet">
<metadata>
Created by potrace 1.14, written by Peter Selinger 2001-2017
</metadata>
<g transform="translate(0.000000,568.000000) scale(0.100000,-0.100000)"
fill="#000000" stroke="none">
<path d="M5210 5493 c-124 -103 -342 -284 -485 -402 -143 -119 -269 -223 -280
-233 -11 -9 -54 -45 -95 -79 -41 -34 -95 -79 -120 -100 -45 -37 -335 -278
-419 -347 -25 -21 -77 -64 -116 -97 -40 -33 -135 -112 -211 -175 -76 -63 -144
-119 -150 -125 -5 -5 -47 -145 -93 -310 -45 -165 -125 -454 -177 -641 -52
-188 -97 -350 -99 -360 -2 -11 -10 -38 -16 -62 -10 -38 -8 -55 16 -144 15 -56
28 -108 30 -117 2 -9 19 -72 38 -140 l35 -124 -22 -21 c-12 -12 -35 -32 -52
-46 -25 -22 -188 -161 -264 -226 -14 -12 -106 -92 -205 -176 -300 -258 -345
-328 -445 -693 -29 -104 -54 -197 -56 -205 -2 -8 -37 -136 -78 -285 -42 -148
-76 -280 -76 -292 0 -30 44 -63 77 -57 14 3 51 26 82 52 30 26 64 55 76 64 11
9 119 98 240 198 121 100 240 199 264 219 25 20 58 48 75 62 17 14 42 35 56
46 14 12 95 78 180 149 85 70 207 170 270 223 63 52 116 95 117 96 1 0 166
597 179 647 6 28 12 47 34 128 11 41 23 82 25 90 2 8 37 137 78 285 l73 270
-22 85 c-12 47 -32 120 -44 162 -11 43 -23 85 -25 95 -2 10 -11 44 -20 77 -9
32 -13 62 -8 65 4 4 37 32 73 62 35 30 74 61 85 70 11 10 43 36 70 59 28 23
59 49 70 59 17 14 306 255 660 550 50 42 92 78 95 81 3 3 28 23 55 45 28 21
52 42 55 45 3 4 48 41 100 84 301 246 426 446 515 826 2 8 29 110 60 225 88
330 117 437 120 458 3 10 -6 29 -20 43 -47 47 -62 39 -305 -163z"/>
<path d="M3709 5632 c-13 -9 -114 -91 -225 -182 -110 -91 -220 -181 -244 -200
-24 -19 -89 -73 -144 -118 -56 -46 -110 -91 -121 -100 -11 -10 -58 -48 -105
-87 -47 -38 -90 -74 -97 -80 -6 -5 -97 -80 -202 -165 -204 -166 -195 -155
-227 -275 -37 -136 -66 -240 -133 -480 -99 -351 -162 -575 -166 -595 -2 -8
-18 -64 -34 -123 -24 -82 -29 -113 -21 -127 6 -11 9 -20 6 -20 -2 0 2 -21 10
-47 8 -27 35 -126 60 -222 45 -171 45 -174 25 -187 -11 -8 -26 -20 -33 -27 -7
-7 -51 -44 -98 -82 -47 -38 -87 -72 -90 -75 -3 -3 -183 -154 -400 -334 -217
-180 -415 -345 -440 -366 -25 -21 -103 -87 -175 -147 -71 -60 -157 -140 -190
-177 -134 -150 -238 -334 -293 -516 -47 -159 -222 -813 -222 -833 0 -28 46
-67 77 -67 36 0 48 9 305 225 117 99 222 187 232 195 11 8 38 31 60 51 23 19
84 71 136 115 52 43 106 89 120 100 33 29 454 381 600 503 63 53 121 101 128
108 7 7 34 29 60 50 26 21 49 40 52 44 3 3 34 29 70 58 36 30 67 57 70 60 3 4
41 36 85 71 79 65 110 91 173 146 35 31 15 -33 247 804 29 107 72 260 95 340
23 80 43 152 45 160 1 8 10 40 19 70 9 30 14 64 11 75 -3 15 -85 329 -120 460
-4 16 11 33 66 80 40 33 77 65 83 70 6 6 126 107 266 226 276 233 349 306 419
413 89 138 109 191 196 506 26 91 52 185 60 210 7 25 36 131 65 235 28 105 53
196 55 202 6 19 -36 62 -66 67 -15 2 -37 -3 -50 -12z"/>
</g>
</svg>
