<?xml version="1.0" encoding="UTF-8"?>
<svg id="uuid-52959545-3a24-4ffd-b99c-5ccf76d4b58d" data-name="Calque 1" xmlns="http://www.w3.org/2000/svg" viewBox="0 0 255.12 155.91">
  <path d="M127.19,36.4c-.15.02-.29.08-.42.19-6.35,5.27-12.7,10.54-19.05,15.81-3.82,3.17-7.64,6.34-11.46,9.51-.06.05-.12.1-.18.15l3.52,12.92c.59-.49,1.18-.98,1.77-1.47,5.97-4.97,11.94-9.95,17.91-14.93.39-.33.77-.67,1.13-1.02,2.38-2.33,4.06-5.17,4.9-8.33.13-.49.26-.98.39-1.47.9-3.42,1.81-6.83,2.71-10.25.11-.4-.14-.77-.49-.97-.22-.12-.48-.18-.72-.14" style="fill: #fff; stroke-width: 0px;"/>
  <path d="M90.41,82.64l1.93,7.13c1.76-1.5,3.51-3,5.27-4.5,1.3-1.11,2.59-2.22,3.89-3.33l-1.9-6.96M99.6,74.98c-3.06,2.55-6.12,5.11-9.19,7.66" style="fill: #fff; isolation: isolate; opacity: .7; stroke-width: 0px;"/>
  <path d="M92.34,89.77c-3.22,2.76-6.45,5.51-9.67,8.27-.58.5-1.11,1.03-1.59,1.59-1.24,1.46-2.14,3.15-2.64,4.99-.66,2.38-1.31,4.77-1.97,7.15-.56,2.04-1.13,4.09-1.69,6.14-.11.39.12.74.46.93.21.12.46.17.69.14.14-.02.28-.08.4-.18,5.21-4.31,10.42-8.62,15.64-12.93,1.29-1.06,2.57-2.13,3.86-3.19l-3.49-12.91" style="fill: #fff; stroke-width: 0px;"/>
  <path d="M102.08,36.93c-.15.02-.3.09-.43.19-3.33,2.74-6.66,5.48-10,8.22-3.15,2.59-6.3,5.18-9.45,7.77l3.38,12.91c.14-.12.28-.23.41-.35,2.93-2.48,5.86-4.97,8.79-7.45.76-.64,1.44-1.33,2.06-2.07,1.44-1.73,2.49-3.72,3.09-5.88.24-.87.48-1.74.72-2.6.89-3.19,1.77-6.38,2.66-9.57.12-.42-.13-.8-.5-1.01-.22-.13-.49-.19-.75-.15h0Z" style="fill: #fff; stroke-width: 0px;"/>
  <path d="M87.48,73.28l-1.9-7.27M85.58,66.02c-3.05,2.58-6.1,5.16-9.14,7.74l1.89,7.14c3.05-2.54,6.1-5.08,9.16-7.62" style="fill: #fff; isolation: isolate; opacity: .7; stroke-width: 0px;"/>
  <path d="M78.33,80.9s-.06.05-.09.07c-6.3,5.24-12.61,10.49-18.91,15.73-.53.44-1.03.9-1.51,1.38-2.49,2.51-4.26,5.55-5.17,8.91-.16.58-.31,1.15-.47,1.72-.86,3.17-1.72,6.34-2.57,9.51-.12.46.15.88.55,1.11.25.14.54.21.83.16.17-.03.33-.1.48-.22,6.79-5.7,13.59-11.4,20.38-17.1,3.22-2.7,6.44-5.41,9.67-8.11.08-.07.16-.14.24-.2l-3.43-12.98" style="fill: #fff; stroke-width: 0px;"/>
  <path d="M96.08,62.06c-.95,3.46-1.9,6.91-2.85,10.36-.08.28-.15.56-.23.84l-1.51,5.48c-.36,1.3-.71,2.6-1.08,3.9,3.06-2.55,6.12-5.11,9.19-7.66l-3.52-12.92h0Z" style="fill: #fff; opacity: .9; stroke-width: 0px;"/>
  <path d="M101.5,81.94c-1.3,1.11-2.6,2.22-3.89,3.33-1.75,1.5-3.51,3-5.27,4.5l3.49,12.91c.69-2.51,1.37-5.02,2.06-7.53.31-1.12.61-2.25.92-3.38l2.69-9.84Z" style="fill: #fff; opacity: .9; stroke-width: 0px;"/>
  <path d="M82.2,53.11c-.45,1.6-.89,3.2-1.34,4.8l-.37,1.31c-.47,1.69-.95,3.39-1.42,5.08-.38,1.35-.75,2.69-1.13,4.04l-1.52,5.43c3.05-2.58,6.1-5.16,9.14-7.74l-3.38-12.91" style="fill: #fff; opacity: .9; stroke-width: 0px;"/>
  <path d="M87.49,73.28c-3.05,2.54-6.1,5.08-9.16,7.62l3.43,12.98c.75-2.69,1.49-5.38,2.24-8.06l1.7-6.12c.59-2.14,1.19-4.28,1.78-6.41" style="fill: #fff; opacity: .9; stroke-width: 0px;"/>
  <path d="M128.75,75.46c-.11-.65-.4-1.16-.87-1.5-.46-.35-1.07-.52-1.84-.52-.69,0-1.23.15-1.64.44-.41.28-.61.64-.61,1.08,0,.4.15.7.45.9.3.19.76.36,1.38.5l2.27.54c.99.24,1.78.49,2.37.75.59.24,1.09.65,1.5,1.21.42.56.63,1.34.63,2.33,0,1.39-.56,2.43-1.68,3.14-1.12.71-2.54,1.06-4.27,1.06s-3.25-.4-4.43-1.19c-1.16-.8-1.83-1.93-2-3.39l3.32-.33c.08.85.4,1.47.97,1.87.58.4,1.3.6,2.17.6.72,0,1.32-.14,1.78-.42.47-.3.71-.7.71-1.21,0-.47-.17-.82-.51-1.04-.33-.23-.9-.44-1.7-.64l-2.17-.54c-.87-.23-1.58-.47-2.13-.71-.55-.26-1.03-.64-1.42-1.16-.38-.51-.57-1.21-.57-2.08s.24-1.62.73-2.23c.5-.62,1.18-1.08,2.04-1.41.86-.32,1.83-.48,2.93-.48,1.58,0,2.88.37,3.89,1.1,1.03.72,1.67,1.76,1.94,3.12l-3.24.21Z" style="fill: #fff; stroke-width: 0px;"/>
  <path d="M138.67,74.63c1.71,0,3.06.48,4.03,1.44.98.95,1.46,2.25,1.46,3.91s-.49,2.97-1.46,3.93c-.98.95-2.32,1.42-4.03,1.42s-3.06-.47-4.03-1.42c-.98-.96-1.46-2.27-1.46-3.93s.49-2.96,1.46-3.91c.98-.96,2.32-1.44,4.03-1.44ZM138.67,83.08c.72,0,1.28-.26,1.68-.77.41-.51.61-1.29.61-2.33s-.2-1.8-.61-2.31c-.4-.53-.96-.79-1.68-.79s-1.29.26-1.7.79c-.4.51-.59,1.28-.59,2.31s.2,1.82.59,2.33c.41.51.98.77,1.7.77Z" style="fill: #fff; stroke-width: 0px;"/>
  <path d="M148.28,76.46h.08c.32-.58.74-1.03,1.27-1.35s1.17-.48,1.92-.48c.21,0,.42.03.63.08v2.85c-.32-.05-.69-.08-1.13-.08-.82,0-1.46.2-1.94.6-.46.4-.69,1.07-.69,2v5.01h-3.14v-10.2h3v1.58Z" style="fill: #fff; stroke-width: 0px;"/>
  <path d="M157.83,83.1c.61,0,1.07-.17,1.38-.52.33-.36.56-.82.69-1.37l3.2.33c-.26,1.07-.82,1.96-1.68,2.7-.84.73-2.04,1.1-3.6,1.1-1.67,0-2.99-.47-3.95-1.42-.96-.96-1.44-2.27-1.44-3.93,0-1.09.22-2.03.65-2.83.44-.81,1.05-1.43,1.86-1.87.82-.44,1.78-.65,2.89-.65,1.53,0,2.7.34,3.52,1.02.82.68,1.36,1.47,1.62,2.37l-3.1.56c-.34-1.13-1.02-1.69-2.04-1.69-.69,0-1.22.26-1.62.79-.38.51-.57,1.28-.57,2.31s.19,1.82.57,2.35c.4.51.94.77,1.62.77Z" style="fill: #fff; stroke-width: 0px;"/>
  <path d="M174.3,82.02c-.14.54-.42,1.06-.83,1.56-.41.5-.99.92-1.74,1.25-.74.33-1.64.5-2.71.5s-2.07-.21-2.89-.64c-.82-.44-1.44-1.06-1.88-1.87-.43-.81-.65-1.75-.65-2.83,0-1.67.48-2.98,1.44-3.93.96-.96,2.29-1.44,3.97-1.44s2.96.47,3.93,1.41c.98.92,1.46,2.25,1.46,3.97l-.02.6h-7.57c.01.81.22,1.46.61,1.94.4.47.92.71,1.58.71.62,0,1.09-.14,1.4-.42.33-.28.55-.62.65-1.02l3.22.21ZM169.02,76.65c-.65,0-1.16.2-1.54.6-.38.39-.59.89-.63,1.5h4.33c-.03-.62-.23-1.12-.61-1.5-.38-.4-.9-.6-1.54-.6Z" style="fill: #fff; stroke-width: 0px;"/>
  <path d="M178.52,76.46h.08c.32-.58.74-1.03,1.26-1.35.53-.32,1.17-.48,1.92-.48.21,0,.42.03.63.08v2.85c-.32-.05-.69-.08-1.13-.08-.82,0-1.46.2-1.94.6-.46.4-.69,1.07-.69,2v5.01h-3.14v-10.2h3v1.58Z" style="fill: #fff; stroke-width: 0px;"/>
  <path d="M190.1,85.08c-.4,1.08-.82,1.89-1.27,2.43-.45.55-.93.92-1.44,1.1-.5.18-1.11.27-1.84.27s-1.37-.03-1.86-.1v-2.46c.42.05.87.08,1.34.08.45,0,.78-.08,1.01-.23.22-.15.42-.44.59-.85l.12-.29-4.19-10.15h3.4l2.35,6.62h.08l2.1-6.62h3.36l-3.76,10.2Z" style="fill: #fff; stroke-width: 0px;"/>
  <path d="M128.7,95.13c-.1-.68-.39-1.21-.86-1.57-.46-.36-1.07-.54-1.83-.54-.68,0-1.23.15-1.63.46-.41.3-.61.67-.61,1.13,0,.42.15.73.45.95.3.2.76.38,1.38.52l2.26.56c.98.25,1.77.52,2.36.78.59.25,1.09.68,1.49,1.27.42.59.63,1.4.63,2.44,0,1.45-.56,2.54-1.67,3.28-1.11.74-2.53,1.11-4.25,1.11s-3.24-.42-4.4-1.25c-1.15-.83-1.81-2.01-1.99-3.54l3.3-.34c.08.89.4,1.54.96,1.95.58.42,1.3.62,2.16.62.72,0,1.31-.15,1.77-.44.47-.31.71-.73.71-1.27,0-.5-.17-.86-.51-1.09-.33-.24-.89-.46-1.69-.66l-2.16-.56c-.86-.24-1.57-.49-2.12-.74-.55-.27-1.02-.67-1.41-1.21-.38-.54-.57-1.26-.57-2.17s.24-1.69.73-2.33c.5-.64,1.17-1.13,2.02-1.47.85-.34,1.82-.5,2.91-.5,1.57,0,2.86.38,3.87,1.15,1.02.75,1.66,1.84,1.93,3.26l-3.22.22Z" style="fill: #fff; stroke-width: 0px;"/>
  <path d="M139.73,105.19c-.39,1.13-.81,1.97-1.26,2.54-.45.58-.92.96-1.43,1.15-.5.19-1.11.28-1.83.28s-1.36-.03-1.85-.1v-2.58c.42.05.86.08,1.34.08.45,0,.78-.08,1-.24.22-.16.42-.46.59-.89l.12-.3-4.17-10.61h3.38l2.34,6.92h.08l2.08-6.92h3.34l-3.73,10.67Z" style="fill: #fff; stroke-width: 0px;"/>
  <path d="M150.09,97.77c-.09-.47-.3-.83-.63-1.09-.33-.25-.73-.38-1.22-.38s-.85.1-1.14.3c-.28.19-.41.46-.41.81,0,.32.14.56.41.7.28.15.71.28,1.32.38l1.1.16c.76.13,1.41.31,1.95.52.54.21.98.55,1.32,1.01.34.44.51,1.05.51,1.81,0,1.14-.46,2.01-1.38,2.6-.92.58-2.12.87-3.6.87-1.4,0-2.56-.3-3.48-.89-.92-.6-1.46-1.44-1.63-2.5l2.93-.34c.1.56.35.99.73,1.27.38.28.87.42,1.47.42.54,0,.96-.11,1.28-.34.33-.23.49-.54.49-.95,0-.31-.16-.55-.47-.72-.3-.17-.76-.32-1.38-.42l-1.2-.18c-1.05-.17-1.89-.49-2.54-.95-.63-.47-.94-1.23-.94-2.27,0-.7.21-1.29.63-1.79.42-.5.98-.87,1.69-1.13.71-.27,1.48-.4,2.32-.4,1.27,0,2.34.28,3.2.85.86.56,1.38,1.34,1.55,2.31l-2.89.34Z" style="fill: #fff; stroke-width: 0px;"/>
  <path d="M160.29,102.78v2.42c-.2.03-.85.04-1.97.04-.8,0-1.43-.07-1.89-.22-.46-.15-.8-.42-1.02-.81-.21-.39-.31-.95-.31-1.67v-5.94h-1.63v-2.07h1.63v-2.96h3.12v2.96h2.12v2.07h-2.12v5.15c0,.44.08.72.26.85.18.12.51.18.98.18h.83Z" style="fill: #fff; stroke-width: 0px;"/>
  <path d="M171.19,101.99c-.14.56-.42,1.11-.82,1.63-.41.52-.98.96-1.73,1.31-.73.35-1.63.52-2.69.52s-2.06-.22-2.87-.66c-.81-.46-1.44-1.11-1.87-1.95-.43-.85-.65-1.83-.65-2.96,0-1.74.48-3.11,1.43-4.11.96-1.01,2.27-1.51,3.95-1.51s2.94.49,3.91,1.47c.97.97,1.45,2.35,1.45,4.15l-.02.62h-7.53c.01.85.22,1.52.61,2.03.39.5.92.74,1.57.74.62,0,1.08-.15,1.4-.44.33-.3.54-.65.65-1.07l3.2.22ZM165.94,96.38c-.64,0-1.15.21-1.53.62-.38.4-.59.93-.63,1.57h4.31c-.03-.64-.23-1.17-.61-1.57-.38-.42-.89-.62-1.53-.62Z" style="fill: #fff; stroke-width: 0px;"/>
  <path d="M185.25,94.26c1.04,0,1.87.34,2.52,1.01.65.66.98,1.63.98,2.92v7h-3.12v-6.22c0-.76-.14-1.32-.41-1.65-.27-.34-.68-.5-1.22-.5s-.97.22-1.34.66c-.35.44-.53,1.09-.53,1.93v5.78h-3.1v-6.22c0-.76-.14-1.32-.41-1.65-.28-.34-.68-.5-1.22-.5s-.97.22-1.34.66c-.35.44-.53,1.09-.53,1.93v5.78h-3.12v-10.67h2.99v1.43h.08c.8-1.13,1.86-1.69,3.18-1.69.69,0,1.3.15,1.83.44.52.3.93.74,1.22,1.35.47-.56.98-1,1.53-1.31.55-.32,1.22-.48,2.02-.48Z" style="fill: #fff; stroke-width: 0px;"/>
  <path d="M196.33,97.77c-.09-.47-.3-.83-.63-1.09-.33-.25-.73-.38-1.22-.38s-.85.1-1.14.3c-.27.19-.41.46-.41.81,0,.32.14.56.41.7.28.15.71.28,1.32.38l1.1.16c.76.13,1.41.31,1.95.52.54.21.98.55,1.32,1.01.34.44.51,1.05.51,1.81,0,1.14-.46,2.01-1.38,2.6-.92.58-2.12.87-3.6.87-1.4,0-2.56-.3-3.48-.89-.92-.6-1.46-1.44-1.63-2.5l2.93-.34c.1.56.35.99.73,1.27.38.28.87.42,1.47.42.54,0,.96-.11,1.28-.34.33-.23.49-.54.49-.95,0-.31-.16-.55-.47-.72-.3-.17-.76-.32-1.38-.42l-1.2-.18c-1.05-.17-1.89-.49-2.53-.95-.63-.47-.94-1.23-.94-2.27,0-.7.21-1.29.63-1.79.42-.5.98-.87,1.69-1.13.71-.27,1.48-.4,2.32-.4,1.27,0,2.34.28,3.2.85s1.38,1.34,1.55,2.31l-2.89.34Z" style="fill: #fff; stroke-width: 0px;"/>
</svg>